<?xml version="1.0" encoding="UTF-8" standalone="no"?>
<!-- Created with Inkscape (http://www.inkscape.org/) -->

<svg
   width="21.184357"
   height="21.325134"
   viewBox="0 0 21.184357 21.325134"
   version="1.1"
   id="svg1"
   xml:space="preserve"
   xmlns="http://www.w3.org/2000/svg"
   xmlns:svg="http://www.w3.org/2000/svg"><defs
     id="defs1" /><path
     d="m 6.3248293,5.0172562 -2.97145,11.2905598 m 1.36399,1.73338 11.7494397,-3.14824 m 0.31472,-2.18319 -8.2185997,-8.2922198 m -5.67078,16.2116098 0.7833,-0.21 c 0.54836,-0.14699 0.82255,-0.22049 1.0034,-0.38325 0.15916,-0.14318 0.26875,-0.3331 0.31325,-0.54254 0.0507,-0.23792 -0.0238,-0.51219 -0.16967,-1.0606 l -0.20998,-0.78332 c -0.147,-0.54841 -0.22049,-0.82257 -0.38327,-1.00339 -0.14317,-0.15918 -0.33314,-0.26873 -0.54253,-0.31323 -0.23815,-0.0507 -0.51223,0.0238 -1.0606,0.1699 l -0.78331,0.20999 c -0.54837,0.147 -0.82258,0.22049 -1.00341005,0.38324 -0.15916,0.14317 -0.26877,0.33311 -0.31324,0.54254 -0.0507,0.23792 0.0238,0.51221 0.1699,1.06062 l 0.20976,0.78328 c 0.14699005,0.54844 0.22049005,0.82261 0.38324005,1.00344 0.14341,0.15916 0.33315,0.26869 0.54255,0.31321 0.23816,0.0507 0.51224,-0.0238 1.06061,-0.16965 z m 15.6661797,-4.19776 0.78333,-0.20999 c 0.54841,-0.14699 0.82256,-0.22049 1.00342,-0.38325 0.15916,-0.14318 0.26871,-0.3331 0.31322,-0.54253 0.0507,-0.23814 -0.0238,-0.51217 -0.16966,-1.06061 l -0.20999,-0.78332 c -0.14699,-0.54841 -0.2205,-0.82257 -0.38325,-1.0034 -0.14317,-0.15916 -0.33312,-0.26871 -0.54255,-0.31324 -0.23791,-0.0506 -0.51219,0.0238 -1.0606,0.16989 l -0.78331,0.20976 c -0.54841,0.147 -0.82257,0.2205 -1.00341,0.38328 -0.15916,0.14318 -0.26871,0.33311 -0.31324,0.54252 -0.0507,0.23791 0.0238,0.51219 0.1699,1.06063 l 0.21,0.78331 c 0.14698,0.54838 0.22048,0.82256 0.38322,1.0034 0.14319,0.15916 0.33311,0.26869 0.54255,0.31325 0.23816,0.0507 0.51219,-0.0238 1.0606,-0.16991 z M 7.0522193,4.8223462 l 0.78331,-0.20999 c 0.54841,-0.14699 0.82258,-0.22049 1.00342,-0.38325 0.15917,-0.14319 0.26869,-0.33316 0.31321,-0.54255 0.0507,-0.23815 -0.0238,-0.51223 -0.1699,-1.0606 l -0.20998,-0.78331 c -0.147,-0.54837 -0.2205,-0.82255 -0.38326,-1.00340999 -0.14318,-0.15916 -0.3331,-0.26874 -0.54254,-0.31324 -0.23791,-0.0506 -0.51219,0.0238 -1.06061,0.1699 l -0.7833,0.21 c -0.54842,0.14699999 -0.82258,0.22047999 -1.00343,0.38322999 -0.15916,0.14318 -0.26869,0.33317 -0.31322,0.54254 -0.0507,0.23816 0.0238,0.51223 0.1699,1.0606 l 0.20975,0.78331 c 0.147,0.54837 0.2205,0.82255 0.38326,1.00341 0.14318,0.15916 0.33312,0.26875 0.54254,0.31327 0.23814,0.0507 0.51219,-0.0238 1.06061,-0.16991 z"
     stroke="currentColor"
     stroke-width="2"
     stroke-linecap="round"
     stroke-linejoin="round"
     id="path1"
     style="fill:#ffffff;fill-opacity:1;stroke-width:1.01367;stroke-dasharray:none" /></svg>
